<?xml version="1.0" standalone="no"?>
<!DOCTYPE svg PUBLIC "-//W3C//DTD SVG 20010904//EN"
 "http://www.w3.org/TR/2001/REC-SVG-20010904/DTD/svg10.dtd">
<svg version="1.0" xmlns="http://www.w3.org/2000/svg"
 width="131.000000pt" height="131.000000pt" viewBox="0 0 131.000000 131.000000"
 preserveAspectRatio="xMidYMid meet">
<metadata>
Created by potrace 1.11, written by Peter Selinger 2001-2013
</metadata>
<g transform="translate(0.000000,131.000000) scale(0.100000,-0.100000)"
fill="#000000" stroke="none">
<path d="M236 1300 c53 -21 54 -30 54 -375 0 -176 -3 -330 -6 -341 -3 -12 -17
-27 -30 -34 -13 -8 -22 -16 -19 -19 9 -8 234 -8 248 1 7 5 -1 8 -21 8 -25 0
-36 7 -50 30 -16 25 -18 52 -18 192 l1 163 64 -3 c72 -2 102 -17 131 -65 l20
-32 1 35 c0 19 1 68 2 108 1 39 1 72 0 72 -1 0 -9 -13 -17 -29 -21 -39 -89
-71 -152 -71 l-50 0 0 180 0 181 87 -2 c92 -2 181 -25 221 -57 12 -9 41 -37
65 -60 24 -24 41 -38 39 -30 -2 7 -12 46 -21 86 l-17 72 -277 -1 c-166 0 -267
-4 -255 -9z"/>
<path d="M580 789 c-19 -4 -28 -7 -19 -8 37 -3 51 -37 53 -128 3 -102 1 -113
-25 -113 -10 0 -19 -5 -19 -11 0 -6 8 -8 19 -4 26 8 27 -3 26 -254 l-1 -213
-27 -24 c-16 -13 -27 -24 -25 -25 2 0 49 -2 106 -3 97 -2 136 5 92 17 -34 9
-40 50 -40 281 l0 222 40 -1 c23 -1 43 2 46 7 6 9 44 156 44 170 0 3 -25 -18
-55 -48 -31 -30 -60 -54 -65 -54 -6 0 -10 39 -10 90 0 62 4 90 12 90 6 0 8 3
4 7 -8 9 -110 10 -156 2z"/>
<path d="M750 788 c0 -4 7 -8 15 -8 8 0 15 4 15 8 0 5 -7 9 -15 9 -8 0 -15 -4
-15 -9z"/>
<path d="M790 791 c0 -4 18 -8 40 -9 45 -2 105 -24 133 -50 31 -27 47 -80 47
-151 0 -113 -57 -192 -149 -206 -20 -4 -45 -10 -56 -14 -34 -14 106 -4 155 10
58 18 124 82 139 134 37 136 -23 250 -145 274 -70 15 -164 21 -164 12z"/>
<path d="M505 530 c3 -5 15 -7 27 -5 32 7 31 12 -2 13 -17 0 -28 -3 -25 -8z"/>
</g>
</svg>
